<mxfile host="app.diagrams.net" modified="2023-11-19T04:04:26.609Z" agent="Mozilla/5.0 (Windows NT 10.0; Win64; x64) AppleWebKit/537.36 (KHTML, like Gecko) Chrome/119.0.0.0 Safari/537.36" etag="_LLLq_e3p7QBrxtBawFn" version="22.1.3" type="device">
  <diagram name="Page-1" id="4Whk2CYhRU4salSlaz38">
    <mxGraphModel dx="2178" dy="1993" grid="1" gridSize="10" guides="1" tooltips="1" connect="1" arrows="1" fold="1" page="1" pageScale="1" pageWidth="2000" pageHeight="1100" math="0" shadow="0">
      <root>
        <mxCell id="0" />
        <mxCell id="1" parent="0" />
        <mxCell id="E_AX1NJWSpd25wLAtNJO-4" value="Platform Component" style="swimlane;fontStyle=0;childLayout=stackLayout;horizontal=1;startSize=30;horizontalStack=0;resizeParent=1;resizeParentMax=0;resizeLast=0;collapsible=1;marginBottom=0;whiteSpace=wrap;html=1;" parent="1" vertex="1">
          <mxGeometry x="1130" y="365" width="150" height="70" as="geometry" />
        </mxCell>
        <mxCell id="E_AX1NJWSpd25wLAtNJO-5" value="bool colliderActive" style="text;strokeColor=none;fillColor=none;align=left;verticalAlign=middle;spacingLeft=4;spacingRight=4;overflow=hidden;points=[[0,0.5],[1,0.5]];portConstraint=eastwest;rotatable=0;whiteSpace=wrap;html=1;" parent="E_AX1NJWSpd25wLAtNJO-4" vertex="1">
          <mxGeometry y="30" width="150" height="40" as="geometry" />
        </mxCell>
        <mxCell id="E_AX1NJWSpd25wLAtNJO-8" value="Motion Component" style="swimlane;fontStyle=0;childLayout=stackLayout;horizontal=1;startSize=30;horizontalStack=0;resizeParent=1;resizeParentMax=0;resizeLast=0;collapsible=1;marginBottom=0;whiteSpace=wrap;html=1;" parent="1" vertex="1">
          <mxGeometry x="380" y="340" width="150" height="120" as="geometry" />
        </mxCell>
        <mxCell id="E_AX1NJWSpd25wLAtNJO-9" value="&lt;div&gt;vec2 position&lt;/div&gt;&lt;div&gt;float angle&lt;/div&gt;&lt;div&gt;vec2 velocity&lt;/div&gt;&lt;div&gt;vec2 scale&lt;/div&gt;" style="text;strokeColor=none;fillColor=none;align=left;verticalAlign=middle;spacingLeft=4;spacingRight=4;overflow=hidden;points=[[0,0.5],[1,0.5]];portConstraint=eastwest;rotatable=0;whiteSpace=wrap;html=1;" parent="E_AX1NJWSpd25wLAtNJO-8" vertex="1">
          <mxGeometry y="30" width="150" height="90" as="geometry" />
        </mxCell>
        <mxCell id="E_AX1NJWSpd25wLAtNJO-10" value="Color Component" style="swimlane;fontStyle=0;childLayout=stackLayout;horizontal=1;startSize=30;horizontalStack=0;resizeParent=1;resizeParentMax=0;resizeLast=0;collapsible=1;marginBottom=0;whiteSpace=wrap;html=1;" parent="1" vertex="1">
          <mxGeometry x="210" y="370" width="140" height="60" as="geometry" />
        </mxCell>
        <mxCell id="E_AX1NJWSpd25wLAtNJO-11" value="vec3 color" style="text;strokeColor=none;fillColor=none;align=left;verticalAlign=middle;spacingLeft=4;spacingRight=4;overflow=hidden;points=[[0,0.5],[1,0.5]];portConstraint=eastwest;rotatable=0;whiteSpace=wrap;html=1;" parent="E_AX1NJWSpd25wLAtNJO-10" vertex="1">
          <mxGeometry y="30" width="140" height="30" as="geometry" />
        </mxCell>
        <mxCell id="E_AX1NJWSpd25wLAtNJO-12" value="Player Component" style="swimlane;fontStyle=0;childLayout=stackLayout;horizontal=1;startSize=30;horizontalStack=0;resizeParent=1;resizeParentMax=0;resizeLast=0;collapsible=1;marginBottom=0;whiteSpace=wrap;html=1;fillColor=default;" parent="1" vertex="1">
          <mxGeometry x="1300" y="340" width="170" height="200" as="geometry" />
        </mxCell>
        <mxCell id="E_AX1NJWSpd25wLAtNJO-13" value="&lt;p style=&quot;line-height: 130%;&quot;&gt;&lt;/p&gt;&lt;div style=&quot;line-height: 150%;&quot;&gt;&lt;span data-darkreader-inline-color=&quot;&quot; data-darkreader-inline-bgcolor=&quot;&quot; style=&quot;background-color: initial; color: rgb(0, 0, 0); --darkreader-inline-bgcolor: initial; --darkreader-inline-color: #e8e6e3;&quot;&gt;&lt;span style=&quot;white-space: pre;&quot;&gt;&amp;nbsp;&amp;nbsp;&amp;nbsp;&amp;nbsp;&lt;/span&gt;&lt;/span&gt;&lt;span data-darkreader-inline-color=&quot;&quot; data-darkreader-inline-bgcolor=&quot;&quot; style=&quot;background-color: initial; color: rgb(0, 0, 0); --darkreader-inline-bgcolor: initial; --darkreader-inline-color: #e8e6e3;&quot;&gt;bool is_grounded&lt;/span&gt;&lt;br&gt;&lt;/div&gt;&lt;div style=&quot;line-height: 150%;&quot;&gt;&lt;span data-darkreader-inline-color=&quot;&quot; data-darkreader-inline-bgcolor=&quot;&quot; style=&quot;background-color: initial; color: rgb(0, 0, 0); --darkreader-inline-bgcolor: initial; --darkreader-inline-color: #e8e6e3;&quot;&gt;&lt;span style=&quot;white-space: pre;&quot;&gt;&amp;nbsp;&amp;nbsp;&amp;nbsp;&amp;nbsp;&lt;/span&gt;&lt;/span&gt;&lt;span data-darkreader-inline-color=&quot;&quot; data-darkreader-inline-bgcolor=&quot;&quot; style=&quot;background-color: initial; color: rgb(0, 0, 0); --darkreader-inline-bgcolor: initial; --darkreader-inline-color: #e8e6e3;&quot;&gt;bool facing_right&amp;nbsp;&lt;/span&gt;&lt;/div&gt;&lt;div style=&quot;line-height: 150%;&quot;&gt;&lt;span style=&quot;&quot;&gt;&lt;span style=&quot;&quot;&gt;&lt;span style=&quot;white-space: pre;&quot;&gt;&amp;nbsp;&amp;nbsp;&amp;nbsp;&amp;nbsp;&lt;/span&gt;&lt;/span&gt;int jump_remaining&amp;nbsp;&lt;/span&gt;&lt;/div&gt;&lt;div style=&quot;line-height: 150%;&quot;&gt;&lt;span style=&quot;&quot;&gt;&lt;span style=&quot;&quot;&gt;&lt;span style=&quot;white-space: pre;&quot;&gt;&amp;nbsp;&amp;nbsp;&amp;nbsp;&amp;nbsp;&lt;/span&gt;&lt;/span&gt;float jump_force&lt;/span&gt;&lt;/div&gt;&lt;div style=&quot;line-height: 150%;&quot;&gt;&lt;span style=&quot;&quot;&gt;&lt;span style=&quot;&quot;&gt;&lt;span style=&quot;white-space: pre;&quot;&gt;&amp;nbsp;&amp;nbsp;&amp;nbsp;&amp;nbsp;&lt;/span&gt;&lt;/span&gt;float running_force&amp;nbsp;&lt;/span&gt;&lt;/div&gt;&lt;div style=&quot;line-height: 150%;&quot;&gt;&lt;span style=&quot;&quot;&gt;&lt;span style=&quot;&quot;&gt;&lt;span style=&quot;white-space: pre;&quot;&gt;&amp;nbsp;&amp;nbsp;&amp;nbsp;&amp;nbsp;&lt;/span&gt;&lt;/span&gt;float speed&lt;/span&gt;&lt;/div&gt;&lt;div style=&quot;line-height: 150%;&quot;&gt;&lt;span style=&quot;&quot;&gt;&lt;span style=&quot;&quot;&gt;&lt;span style=&quot;white-space: pre;&quot;&gt;&amp;nbsp;&amp;nbsp;&amp;nbsp;&amp;nbsp;&lt;/span&gt;&lt;/span&gt;bool is_running_left&lt;/span&gt;&lt;/div&gt;&lt;div style=&quot;line-height: 150%;&quot;&gt;&lt;span style=&quot;&quot;&gt;&lt;span style=&quot;&quot;&gt;&lt;span style=&quot;white-space: pre;&quot;&gt;&amp;nbsp;&amp;nbsp;&amp;nbsp;&amp;nbsp;&lt;/span&gt;&lt;/span&gt;bool is_running_right&lt;/span&gt;&lt;/div&gt;&lt;p&gt;&lt;/p&gt;" style="text;strokeColor=none;fillColor=none;align=left;verticalAlign=middle;spacingLeft=4;spacingRight=4;overflow=hidden;points=[[0,0.5],[1,0.5]];portConstraint=eastwest;rotatable=0;whiteSpace=wrap;html=1;" parent="E_AX1NJWSpd25wLAtNJO-12" vertex="1">
          <mxGeometry y="30" width="170" height="170" as="geometry" />
        </mxCell>
        <mxCell id="E_AX1NJWSpd25wLAtNJO-14" value="Render System" style="swimlane;fontStyle=0;childLayout=stackLayout;horizontal=1;startSize=30;horizontalStack=0;resizeParent=1;resizeParentMax=0;resizeLast=0;collapsible=1;marginBottom=0;whiteSpace=wrap;html=1;" parent="1" vertex="1">
          <mxGeometry x="350" y="680" width="220" height="100" as="geometry" />
        </mxCell>
        <mxCell id="E_AX1NJWSpd25wLAtNJO-15" value="&lt;div&gt;void drawTexturedMesh();&lt;/div&gt;&lt;div&gt;void drawToScreen();&lt;span style=&quot;&quot;&gt;&lt;/span&gt;&lt;/div&gt;" style="text;strokeColor=none;fillColor=none;align=left;verticalAlign=middle;spacingLeft=4;spacingRight=4;overflow=hidden;points=[[0,0.5],[1,0.5]];portConstraint=eastwest;rotatable=0;whiteSpace=wrap;html=1;" parent="E_AX1NJWSpd25wLAtNJO-14" vertex="1">
          <mxGeometry y="30" width="220" height="70" as="geometry" />
        </mxCell>
        <mxCell id="E_AX1NJWSpd25wLAtNJO-18" value="Physics System" style="swimlane;fontStyle=0;childLayout=stackLayout;horizontal=1;startSize=30;horizontalStack=0;resizeParent=1;resizeParentMax=0;resizeLast=0;collapsible=1;marginBottom=0;whiteSpace=wrap;html=1;" parent="1" vertex="1">
          <mxGeometry x="610" y="680" width="170" height="60" as="geometry" />
        </mxCell>
        <mxCell id="E_AX1NJWSpd25wLAtNJO-19" value="void&amp;nbsp;step()" style="text;strokeColor=none;fillColor=none;align=left;verticalAlign=middle;spacingLeft=4;spacingRight=4;overflow=hidden;points=[[0,0.5],[1,0.5]];portConstraint=eastwest;rotatable=0;whiteSpace=wrap;html=1;" parent="E_AX1NJWSpd25wLAtNJO-18" vertex="1">
          <mxGeometry y="30" width="170" height="30" as="geometry" />
        </mxCell>
        <mxCell id="8jfZw3TqL5WwRgK06lYh-1" value="World System" style="swimlane;fontStyle=0;childLayout=stackLayout;horizontal=1;startSize=30;horizontalStack=0;resizeParent=1;resizeParentMax=0;resizeLast=0;collapsible=1;marginBottom=0;whiteSpace=wrap;html=1;" parent="1" vertex="1">
          <mxGeometry x="1180" y="690" width="220" height="140" as="geometry" />
        </mxCell>
        <mxCell id="8jfZw3TqL5WwRgK06lYh-2" value="&lt;div&gt;void on_key();&lt;/div&gt;&lt;div&gt;void on_mouse_move();&lt;span style=&quot;&quot;&gt;&lt;/span&gt;&lt;/div&gt;&lt;div&gt;&lt;span style=&quot;background-color: initial;&quot;&gt;&lt;span style=&quot;white-space: pre;&quot;&gt;&amp;nbsp;&lt;/span&gt;&lt;/span&gt;&lt;span style=&quot;background-color: initial;&quot;&gt;void restart_game();&lt;/span&gt;&lt;br&gt;&lt;/div&gt;&lt;div&gt;&lt;br&gt;&lt;/div&gt;" style="text;strokeColor=none;fillColor=none;align=left;verticalAlign=middle;spacingLeft=4;spacingRight=4;overflow=hidden;points=[[0,0.5],[1,0.5]];portConstraint=eastwest;rotatable=0;whiteSpace=wrap;html=1;" parent="8jfZw3TqL5WwRgK06lYh-1" vertex="1">
          <mxGeometry y="30" width="220" height="110" as="geometry" />
        </mxCell>
        <mxCell id="r48Ck-CKU5FbPxM-GwQW-3" value="Friction Component" style="swimlane;fontStyle=0;childLayout=stackLayout;horizontal=1;startSize=30;horizontalStack=0;resizeParent=1;resizeParentMax=0;resizeLast=0;collapsible=1;marginBottom=0;whiteSpace=wrap;html=1;" parent="1" vertex="1">
          <mxGeometry x="770" y="370" width="150" height="60" as="geometry" />
        </mxCell>
        <mxCell id="r48Ck-CKU5FbPxM-GwQW-4" value="Gravity Component" style="swimlane;fontStyle=0;childLayout=stackLayout;horizontal=1;startSize=30;horizontalStack=0;resizeParent=1;resizeParentMax=0;resizeLast=0;collapsible=1;marginBottom=0;whiteSpace=wrap;html=1;" parent="1" vertex="1">
          <mxGeometry x="950" y="370" width="150" height="60" as="geometry" />
        </mxCell>
        <mxCell id="r48Ck-CKU5FbPxM-GwQW-7" value="float force" style="text;html=1;align=center;verticalAlign=middle;resizable=0;points=[];autosize=1;strokeColor=none;fillColor=none;" parent="r48Ck-CKU5FbPxM-GwQW-4" vertex="1">
          <mxGeometry y="30" width="150" height="30" as="geometry" />
        </mxCell>
        <mxCell id="r48Ck-CKU5FbPxM-GwQW-5" value="Bullet Component" style="swimlane;fontStyle=0;childLayout=stackLayout;horizontal=1;startSize=30;horizontalStack=0;resizeParent=1;resizeParentMax=0;resizeLast=0;collapsible=1;marginBottom=0;whiteSpace=wrap;html=1;" parent="1" vertex="1">
          <mxGeometry x="1490" y="320" width="80" height="60" as="geometry" />
        </mxCell>
        <mxCell id="r48Ck-CKU5FbPxM-GwQW-10" value="Collision Component" style="swimlane;fontStyle=0;childLayout=stackLayout;horizontal=1;startSize=30;horizontalStack=0;resizeParent=1;resizeParentMax=0;resizeLast=0;collapsible=1;marginBottom=0;whiteSpace=wrap;html=1;" parent="1" vertex="1">
          <mxGeometry x="590" y="370" width="150" height="60" as="geometry" />
        </mxCell>
        <mxCell id="r48Ck-CKU5FbPxM-GwQW-11" value="Entity other_entity" style="text;html=1;align=center;verticalAlign=middle;resizable=0;points=[];autosize=1;strokeColor=none;fillColor=none;" parent="r48Ck-CKU5FbPxM-GwQW-10" vertex="1">
          <mxGeometry y="30" width="150" height="30" as="geometry" />
        </mxCell>
        <mxCell id="r48Ck-CKU5FbPxM-GwQW-29" value="" style="endArrow=classic;html=1;rounded=0;exitX=0.25;exitY=0;exitDx=0;exitDy=0;entryX=0.243;entryY=1.093;entryDx=0;entryDy=0;entryPerimeter=0;" parent="1" source="E_AX1NJWSpd25wLAtNJO-14" target="E_AX1NJWSpd25wLAtNJO-11" edge="1">
          <mxGeometry width="50" height="50" relative="1" as="geometry">
            <mxPoint x="810" y="570" as="sourcePoint" />
            <mxPoint x="960" y="510" as="targetPoint" />
          </mxGeometry>
        </mxCell>
        <mxCell id="r48Ck-CKU5FbPxM-GwQW-30" value="" style="endArrow=classic;html=1;rounded=0;exitX=0.5;exitY=0;exitDx=0;exitDy=0;entryX=0.147;entryY=1.036;entryDx=0;entryDy=0;entryPerimeter=0;" parent="1" source="E_AX1NJWSpd25wLAtNJO-14" target="E_AX1NJWSpd25wLAtNJO-9" edge="1">
          <mxGeometry width="50" height="50" relative="1" as="geometry">
            <mxPoint x="245" y="660" as="sourcePoint" />
            <mxPoint x="224.01999999999998" y="462.78999999999996" as="targetPoint" />
          </mxGeometry>
        </mxCell>
        <mxCell id="r48Ck-CKU5FbPxM-GwQW-31" value="" style="endArrow=classic;html=1;rounded=0;exitX=0.25;exitY=0;exitDx=0;exitDy=0;entryX=0.461;entryY=1.009;entryDx=0;entryDy=0;entryPerimeter=0;" parent="1" source="E_AX1NJWSpd25wLAtNJO-18" target="E_AX1NJWSpd25wLAtNJO-9" edge="1">
          <mxGeometry width="50" height="50" relative="1" as="geometry">
            <mxPoint x="300" y="660" as="sourcePoint" />
            <mxPoint x="433.4042553191489" y="470" as="targetPoint" />
          </mxGeometry>
        </mxCell>
        <mxCell id="r48Ck-CKU5FbPxM-GwQW-32" value="" style="endArrow=classic;html=1;rounded=0;exitX=0.116;exitY=-0.009;exitDx=0;exitDy=0;entryX=0.675;entryY=1.009;entryDx=0;entryDy=0;entryPerimeter=0;exitPerimeter=0;" parent="1" source="8jfZw3TqL5WwRgK06lYh-1" target="E_AX1NJWSpd25wLAtNJO-9" edge="1">
          <mxGeometry width="50" height="50" relative="1" as="geometry">
            <mxPoint x="512.5" y="660" as="sourcePoint" />
            <mxPoint x="459.1500000000001" y="470.80999999999995" as="targetPoint" />
          </mxGeometry>
        </mxCell>
        <mxCell id="r48Ck-CKU5FbPxM-GwQW-33" value="" style="endArrow=classic;html=1;rounded=0;entryX=0.187;entryY=1.093;entryDx=0;entryDy=0;entryPerimeter=0;exitX=0.424;exitY=-0.013;exitDx=0;exitDy=0;exitPerimeter=0;" parent="1" source="E_AX1NJWSpd25wLAtNJO-18" target="r48Ck-CKU5FbPxM-GwQW-11" edge="1">
          <mxGeometry width="50" height="50" relative="1" as="geometry">
            <mxPoint x="530" y="650" as="sourcePoint" />
            <mxPoint x="469.1500000000001" y="480.80999999999995" as="targetPoint" />
          </mxGeometry>
        </mxCell>
        <mxCell id="r48Ck-CKU5FbPxM-GwQW-34" value="" style="endArrow=classic;html=1;rounded=0;exitX=0.25;exitY=0;exitDx=0;exitDy=0;entryX=0.528;entryY=1.12;entryDx=0;entryDy=0;entryPerimeter=0;" parent="1" source="8jfZw3TqL5WwRgK06lYh-1" target="r48Ck-CKU5FbPxM-GwQW-11" edge="1">
          <mxGeometry width="50" height="50" relative="1" as="geometry">
            <mxPoint x="532.5" y="680" as="sourcePoint" />
            <mxPoint x="479.1500000000001" y="490.80999999999995" as="targetPoint" />
          </mxGeometry>
        </mxCell>
        <mxCell id="r48Ck-CKU5FbPxM-GwQW-35" value="" style="endArrow=classic;html=1;rounded=0;exitX=0.562;exitY=0.007;exitDx=0;exitDy=0;exitPerimeter=0;" parent="1" source="E_AX1NJWSpd25wLAtNJO-18" edge="1">
          <mxGeometry width="50" height="50" relative="1" as="geometry">
            <mxPoint x="542.5" y="690" as="sourcePoint" />
            <mxPoint x="800" y="430" as="targetPoint" />
          </mxGeometry>
        </mxCell>
        <mxCell id="r48Ck-CKU5FbPxM-GwQW-36" value="" style="endArrow=classic;html=1;rounded=0;exitX=0.75;exitY=0;exitDx=0;exitDy=0;entryX=0.277;entryY=1.093;entryDx=0;entryDy=0;entryPerimeter=0;" parent="1" source="E_AX1NJWSpd25wLAtNJO-18" target="r48Ck-CKU5FbPxM-GwQW-7" edge="1">
          <mxGeometry width="50" height="50" relative="1" as="geometry">
            <mxPoint x="565.54" y="660.4200000000001" as="sourcePoint" />
            <mxPoint x="810" y="440" as="targetPoint" />
          </mxGeometry>
        </mxCell>
        <mxCell id="r48Ck-CKU5FbPxM-GwQW-37" value="" style="endArrow=classic;html=1;rounded=0;exitX=0.5;exitY=0;exitDx=0;exitDy=0;entryX=0.352;entryY=1.045;entryDx=0;entryDy=0;entryPerimeter=0;" parent="1" source="8jfZw3TqL5WwRgK06lYh-1" target="E_AX1NJWSpd25wLAtNJO-5" edge="1">
          <mxGeometry width="50" height="50" relative="1" as="geometry">
            <mxPoint x="975" y="640" as="sourcePoint" />
            <mxPoint x="679.1999999999998" y="443.5999999999999" as="targetPoint" />
          </mxGeometry>
        </mxCell>
        <mxCell id="r48Ck-CKU5FbPxM-GwQW-38" value="" style="endArrow=classic;html=1;rounded=0;exitX=0.75;exitY=0;exitDx=0;exitDy=0;entryX=0.315;entryY=0.995;entryDx=0;entryDy=0;entryPerimeter=0;" parent="1" source="8jfZw3TqL5WwRgK06lYh-1" target="E_AX1NJWSpd25wLAtNJO-13" edge="1">
          <mxGeometry width="50" height="50" relative="1" as="geometry">
            <mxPoint x="1030" y="640" as="sourcePoint" />
            <mxPoint x="1192.8000000000002" y="446.79999999999995" as="targetPoint" />
          </mxGeometry>
        </mxCell>
        <mxCell id="r48Ck-CKU5FbPxM-GwQW-39" value="" style="endArrow=classic;html=1;rounded=0;exitX=0.956;exitY=-0.003;exitDx=0;exitDy=0;entryX=0.5;entryY=1;entryDx=0;entryDy=0;exitPerimeter=0;" parent="1" source="8jfZw3TqL5WwRgK06lYh-1" target="r48Ck-CKU5FbPxM-GwQW-5" edge="1">
          <mxGeometry width="50" height="50" relative="1" as="geometry">
            <mxPoint x="1085" y="640" as="sourcePoint" />
            <mxPoint x="1373.5500000000002" y="469.1500000000001" as="targetPoint" />
          </mxGeometry>
        </mxCell>
        <mxCell id="r48Ck-CKU5FbPxM-GwQW-40" value="Player" style="swimlane;fontStyle=0;childLayout=stackLayout;horizontal=1;startSize=30;horizontalStack=0;resizeParent=1;resizeParentMax=0;resizeLast=0;collapsible=1;marginBottom=0;whiteSpace=wrap;html=1;fillColor=default;" parent="1" vertex="1">
          <mxGeometry x="990" y="60" width="170" height="80" as="geometry" />
        </mxCell>
        <mxCell id="r48Ck-CKU5FbPxM-GwQW-41" value="&lt;p style=&quot;line-height: 130%;&quot;&gt;&lt;/p&gt;&lt;div style=&quot;line-height: 150%;&quot;&gt;&lt;span style=&quot;white-space: pre;&quot;&gt;int index&lt;/span&gt;&lt;/div&gt;&lt;div style=&quot;line-height: 150%;&quot;&gt;&lt;span style=&quot;white-space: pre;&quot;&gt;&lt;br&gt;&lt;/span&gt;&lt;/div&gt;&lt;p&gt;&lt;/p&gt;" style="text;strokeColor=none;fillColor=none;align=left;verticalAlign=middle;spacingLeft=4;spacingRight=4;overflow=hidden;points=[[0,0.5],[1,0.5]];portConstraint=eastwest;rotatable=0;whiteSpace=wrap;html=1;" parent="r48Ck-CKU5FbPxM-GwQW-40" vertex="1">
          <mxGeometry y="30" width="170" height="50" as="geometry" />
        </mxCell>
        <mxCell id="r48Ck-CKU5FbPxM-GwQW-42" value="" style="endArrow=classic;html=1;rounded=0;exitX=0.5;exitY=0;exitDx=0;exitDy=0;entryX=0.073;entryY=1.016;entryDx=0;entryDy=0;entryPerimeter=0;" parent="1" source="E_AX1NJWSpd25wLAtNJO-8" target="r48Ck-CKU5FbPxM-GwQW-41" edge="1">
          <mxGeometry width="50" height="50" relative="1" as="geometry">
            <mxPoint x="470" y="690" as="sourcePoint" />
            <mxPoint x="412.0500000000002" y="473.24" as="targetPoint" />
          </mxGeometry>
        </mxCell>
        <mxCell id="r48Ck-CKU5FbPxM-GwQW-43" value="" style="endArrow=classic;html=1;rounded=0;exitX=0.25;exitY=0;exitDx=0;exitDy=0;entryX=0.259;entryY=1.048;entryDx=0;entryDy=0;entryPerimeter=0;" parent="1" source="r48Ck-CKU5FbPxM-GwQW-3" target="r48Ck-CKU5FbPxM-GwQW-41" edge="1">
          <mxGeometry width="50" height="50" relative="1" as="geometry">
            <mxPoint x="427.5" y="350" as="sourcePoint" />
            <mxPoint x="732.4099999999999" y="130.79999999999995" as="targetPoint" />
          </mxGeometry>
        </mxCell>
        <mxCell id="r48Ck-CKU5FbPxM-GwQW-44" value="" style="endArrow=classic;html=1;rounded=0;exitX=0.25;exitY=0;exitDx=0;exitDy=0;entryX=0.555;entryY=1.016;entryDx=0;entryDy=0;entryPerimeter=0;" parent="1" source="r48Ck-CKU5FbPxM-GwQW-4" target="r48Ck-CKU5FbPxM-GwQW-41" edge="1">
          <mxGeometry width="50" height="50" relative="1" as="geometry">
            <mxPoint x="437.5" y="360" as="sourcePoint" />
            <mxPoint x="742.4099999999999" y="140.79999999999995" as="targetPoint" />
          </mxGeometry>
        </mxCell>
        <mxCell id="r48Ck-CKU5FbPxM-GwQW-45" value="" style="endArrow=classic;html=1;rounded=0;exitX=0.25;exitY=0;exitDx=0;exitDy=0;entryX=0.781;entryY=1.064;entryDx=0;entryDy=0;entryPerimeter=0;" parent="1" source="E_AX1NJWSpd25wLAtNJO-12" target="r48Ck-CKU5FbPxM-GwQW-41" edge="1">
          <mxGeometry width="50" height="50" relative="1" as="geometry">
            <mxPoint x="447.5" y="370" as="sourcePoint" />
            <mxPoint x="752.4099999999999" y="150.79999999999995" as="targetPoint" />
          </mxGeometry>
        </mxCell>
        <mxCell id="r48Ck-CKU5FbPxM-GwQW-46" value="Platform" style="swimlane;fontStyle=0;childLayout=stackLayout;horizontal=1;startSize=30;horizontalStack=0;resizeParent=1;resizeParentMax=0;resizeLast=0;collapsible=1;marginBottom=0;whiteSpace=wrap;html=1;fillColor=default;" parent="1" vertex="1">
          <mxGeometry x="560" y="60" width="170" height="80" as="geometry" />
        </mxCell>
        <mxCell id="r48Ck-CKU5FbPxM-GwQW-47" value="&lt;p style=&quot;line-height: 130%;&quot;&gt;&lt;/p&gt;&lt;div style=&quot;line-height: 150%;&quot;&gt;&lt;span style=&quot;white-space: pre;&quot;&gt;int index&lt;/span&gt;&lt;/div&gt;&lt;div style=&quot;line-height: 150%;&quot;&gt;&lt;span style=&quot;white-space: pre;&quot;&gt;&lt;br&gt;&lt;/span&gt;&lt;/div&gt;&lt;p&gt;&lt;/p&gt;" style="text;strokeColor=none;fillColor=none;align=left;verticalAlign=middle;spacingLeft=4;spacingRight=4;overflow=hidden;points=[[0,0.5],[1,0.5]];portConstraint=eastwest;rotatable=0;whiteSpace=wrap;html=1;" parent="r48Ck-CKU5FbPxM-GwQW-46" vertex="1">
          <mxGeometry y="30" width="170" height="50" as="geometry" />
        </mxCell>
        <mxCell id="r48Ck-CKU5FbPxM-GwQW-48" value="" style="endArrow=classic;html=1;rounded=0;exitX=0.75;exitY=0;exitDx=0;exitDy=0;entryX=0.821;entryY=1.032;entryDx=0;entryDy=0;entryPerimeter=0;" parent="1" source="E_AX1NJWSpd25wLAtNJO-4" target="r48Ck-CKU5FbPxM-GwQW-47" edge="1">
          <mxGeometry width="50" height="50" relative="1" as="geometry">
            <mxPoint x="427.5" y="350" as="sourcePoint" />
            <mxPoint x="1192.4099999999999" y="150.79999999999995" as="targetPoint" />
          </mxGeometry>
        </mxCell>
        <mxCell id="r48Ck-CKU5FbPxM-GwQW-49" value="" style="endArrow=classic;html=1;rounded=0;exitX=0.5;exitY=0;exitDx=0;exitDy=0;entryX=0.139;entryY=1.016;entryDx=0;entryDy=0;entryPerimeter=0;" parent="1" source="E_AX1NJWSpd25wLAtNJO-10" target="r48Ck-CKU5FbPxM-GwQW-47" edge="1">
          <mxGeometry width="50" height="50" relative="1" as="geometry">
            <mxPoint x="437.5" y="360" as="sourcePoint" />
            <mxPoint x="1202.4099999999999" y="160.79999999999995" as="targetPoint" />
          </mxGeometry>
        </mxCell>
        <mxCell id="r48Ck-CKU5FbPxM-GwQW-50" value="Bullet" style="swimlane;fontStyle=0;childLayout=stackLayout;horizontal=1;startSize=30;horizontalStack=0;resizeParent=1;resizeParentMax=0;resizeLast=0;collapsible=1;marginBottom=0;whiteSpace=wrap;html=1;fillColor=default;" parent="1" vertex="1">
          <mxGeometry x="1310" y="60" width="170" height="80" as="geometry" />
        </mxCell>
        <mxCell id="r48Ck-CKU5FbPxM-GwQW-51" value="&lt;p style=&quot;line-height: 130%;&quot;&gt;&lt;/p&gt;&lt;div style=&quot;line-height: 150%;&quot;&gt;&lt;span style=&quot;white-space: pre;&quot;&gt;int index&lt;/span&gt;&lt;/div&gt;&lt;div style=&quot;line-height: 150%;&quot;&gt;&lt;span style=&quot;white-space: pre;&quot;&gt;&lt;br&gt;&lt;/span&gt;&lt;/div&gt;&lt;p&gt;&lt;/p&gt;" style="text;strokeColor=none;fillColor=none;align=left;verticalAlign=middle;spacingLeft=4;spacingRight=4;overflow=hidden;points=[[0,0.5],[1,0.5]];portConstraint=eastwest;rotatable=0;whiteSpace=wrap;html=1;" parent="r48Ck-CKU5FbPxM-GwQW-50" vertex="1">
          <mxGeometry y="30" width="170" height="50" as="geometry" />
        </mxCell>
        <mxCell id="r48Ck-CKU5FbPxM-GwQW-52" value="" style="endArrow=classic;html=1;rounded=0;exitX=0.75;exitY=0;exitDx=0;exitDy=0;entryX=0.781;entryY=1.016;entryDx=0;entryDy=0;entryPerimeter=0;" parent="1" source="r48Ck-CKU5FbPxM-GwQW-5" target="r48Ck-CKU5FbPxM-GwQW-51" edge="1">
          <mxGeometry width="50" height="50" relative="1" as="geometry">
            <mxPoint x="1362.5" y="270" as="sourcePoint" />
            <mxPoint x="1132.77" y="153.20000000000005" as="targetPoint" />
          </mxGeometry>
        </mxCell>
        <mxCell id="r48Ck-CKU5FbPxM-GwQW-53" value="" style="endArrow=classic;html=1;rounded=0;exitX=0.75;exitY=0;exitDx=0;exitDy=0;entryX=0.287;entryY=1.048;entryDx=0;entryDy=0;entryPerimeter=0;" parent="1" source="E_AX1NJWSpd25wLAtNJO-8" target="r48Ck-CKU5FbPxM-GwQW-51" edge="1">
          <mxGeometry width="50" height="50" relative="1" as="geometry">
            <mxPoint x="1642.5" y="350" as="sourcePoint" />
            <mxPoint x="1452.77" y="150.79999999999995" as="targetPoint" />
          </mxGeometry>
        </mxCell>
        <mxCell id="r48Ck-CKU5FbPxM-GwQW-54" value="" style="endArrow=classic;html=1;rounded=0;exitX=0.5;exitY=0;exitDx=0;exitDy=0;entryX=0.565;entryY=1.08;entryDx=0;entryDy=0;entryPerimeter=0;" parent="1" source="r48Ck-CKU5FbPxM-GwQW-4" target="r48Ck-CKU5FbPxM-GwQW-51" edge="1">
          <mxGeometry width="50" height="50" relative="1" as="geometry">
            <mxPoint x="502.5" y="350" as="sourcePoint" />
            <mxPoint x="1368.79" y="152.39999999999998" as="targetPoint" />
          </mxGeometry>
        </mxCell>
        <mxCell id="r48Ck-CKU5FbPxM-GwQW-55" value="Background" style="swimlane;fontStyle=0;childLayout=stackLayout;horizontal=1;startSize=30;horizontalStack=0;resizeParent=1;resizeParentMax=0;resizeLast=0;collapsible=1;marginBottom=0;whiteSpace=wrap;html=1;fillColor=default;" parent="1" vertex="1">
          <mxGeometry x="180" y="60" width="170" height="80" as="geometry" />
        </mxCell>
        <mxCell id="r48Ck-CKU5FbPxM-GwQW-56" value="&lt;p style=&quot;line-height: 130%;&quot;&gt;&lt;/p&gt;&lt;div style=&quot;line-height: 150%;&quot;&gt;&lt;span style=&quot;white-space: pre;&quot;&gt;int index&lt;/span&gt;&lt;/div&gt;&lt;div style=&quot;line-height: 150%;&quot;&gt;&lt;span style=&quot;white-space: pre;&quot;&gt;&lt;br&gt;&lt;/span&gt;&lt;/div&gt;&lt;p&gt;&lt;/p&gt;" style="text;strokeColor=none;fillColor=none;align=left;verticalAlign=middle;spacingLeft=4;spacingRight=4;overflow=hidden;points=[[0,0.5],[1,0.5]];portConstraint=eastwest;rotatable=0;whiteSpace=wrap;html=1;" parent="r48Ck-CKU5FbPxM-GwQW-55" vertex="1">
          <mxGeometry y="30" width="170" height="50" as="geometry" />
        </mxCell>
        <mxCell id="r48Ck-CKU5FbPxM-GwQW-57" value="" style="endArrow=classic;html=1;rounded=0;exitX=0.117;exitY=0.007;exitDx=0;exitDy=0;entryX=0.482;entryY=1.016;entryDx=0;entryDy=0;entryPerimeter=0;exitPerimeter=0;" parent="1" source="E_AX1NJWSpd25wLAtNJO-10" target="r48Ck-CKU5FbPxM-GwQW-56" edge="1">
          <mxGeometry width="50" height="50" relative="1" as="geometry">
            <mxPoint x="225" y="400" as="sourcePoint" />
            <mxPoint x="593.6300000000001" y="150.79999999999995" as="targetPoint" />
          </mxGeometry>
        </mxCell>
        <mxCell id="r48Ck-CKU5FbPxM-GwQW-58" value="" style="endArrow=classic;html=1;rounded=0;exitX=0.25;exitY=0;exitDx=0;exitDy=0;entryX=0.407;entryY=1.064;entryDx=0;entryDy=0;entryPerimeter=0;" parent="1" source="E_AX1NJWSpd25wLAtNJO-8" target="r48Ck-CKU5FbPxM-GwQW-47" edge="1">
          <mxGeometry width="50" height="50" relative="1" as="geometry">
            <mxPoint x="465" y="350" as="sourcePoint" />
            <mxPoint x="1012.4099999999999" y="150.79999999999995" as="targetPoint" />
          </mxGeometry>
        </mxCell>
        <mxCell id="r48Ck-CKU5FbPxM-GwQW-61" value="" style="endArrow=classic;html=1;rounded=0;exitX=0;exitY=0;exitDx=0;exitDy=0;entryX=0.661;entryY=1.064;entryDx=0;entryDy=0;entryPerimeter=0;" parent="1" source="E_AX1NJWSpd25wLAtNJO-8" target="r48Ck-CKU5FbPxM-GwQW-56" edge="1">
          <mxGeometry width="50" height="50" relative="1" as="geometry">
            <mxPoint x="206.3800000000001" y="400.4200000000001" as="sourcePoint" />
            <mxPoint x="271.94000000000005" y="150.79999999999995" as="targetPoint" />
          </mxGeometry>
        </mxCell>
        <mxCell id="_Jkfn7EzWGRx7QiyIQfU-1" value="ParallaxBackground&amp;nbsp;&lt;br&gt;Component" style="swimlane;fontStyle=0;childLayout=stackLayout;horizontal=1;startSize=30;horizontalStack=0;resizeParent=1;resizeParentMax=0;resizeLast=0;collapsible=1;marginBottom=0;whiteSpace=wrap;html=1;fillColor=#CCFFCC;" parent="1" vertex="1">
          <mxGeometry x="20" y="340" width="160" height="120" as="geometry" />
        </mxCell>
        <mxCell id="_Jkfn7EzWGRx7QiyIQfU-2" value="&lt;div&gt;float scrollingSpeedBack&lt;/div&gt;&lt;div&gt;float scrollingSpeedMiddle&lt;/div&gt;&lt;div&gt;float scrollingSpeedFront&lt;/div&gt;&lt;div&gt;float scrollingSpeed&lt;/div&gt;" style="text;strokeColor=none;fillColor=none;align=left;verticalAlign=middle;spacingLeft=4;spacingRight=4;overflow=hidden;points=[[0,0.5],[1,0.5]];portConstraint=eastwest;rotatable=0;whiteSpace=wrap;html=1;" parent="_Jkfn7EzWGRx7QiyIQfU-1" vertex="1">
          <mxGeometry y="30" width="160" height="90" as="geometry" />
        </mxCell>
        <mxCell id="_Jkfn7EzWGRx7QiyIQfU-3" value="" style="endArrow=classic;html=1;rounded=0;exitX=0.5;exitY=0;exitDx=0;exitDy=0;entryX=0.324;entryY=1.04;entryDx=0;entryDy=0;entryPerimeter=0;strokeColor=#CCFFCC;" parent="1" source="_Jkfn7EzWGRx7QiyIQfU-1" target="r48Ck-CKU5FbPxM-GwQW-56" edge="1">
          <mxGeometry width="50" height="50" relative="1" as="geometry">
            <mxPoint x="236" y="380" as="sourcePoint" />
            <mxPoint x="272" y="151" as="targetPoint" />
            <Array as="points" />
          </mxGeometry>
        </mxCell>
        <mxCell id="_Jkfn7EzWGRx7QiyIQfU-4" value="" style="endArrow=classic;html=1;rounded=0;exitX=0;exitY=0;exitDx=0;exitDy=0;entryX=0.243;entryY=1.093;entryDx=0;entryDy=0;entryPerimeter=0;strokeColor=#CCFFCC;" parent="1" source="E_AX1NJWSpd25wLAtNJO-14" edge="1">
          <mxGeometry width="50" height="50" relative="1" as="geometry">
            <mxPoint x="271" y="707" as="sourcePoint" />
            <mxPoint x="110" y="460" as="targetPoint" />
          </mxGeometry>
        </mxCell>
        <mxCell id="_Jkfn7EzWGRx7QiyIQfU-5" value="Movement System" style="swimlane;fontStyle=0;childLayout=stackLayout;horizontal=1;startSize=30;horizontalStack=0;resizeParent=1;resizeParentMax=0;resizeLast=0;collapsible=1;marginBottom=0;whiteSpace=wrap;html=1;fillColor=#CCFFCC;" parent="1" vertex="1">
          <mxGeometry x="820" y="690" width="160" height="90" as="geometry" />
        </mxCell>
        <mxCell id="_Jkfn7EzWGRx7QiyIQfU-6" value="&lt;div&gt;void step()&lt;/div&gt;&lt;div&gt;&lt;br&gt;&lt;/div&gt;" style="text;strokeColor=none;fillColor=none;align=left;verticalAlign=middle;spacingLeft=4;spacingRight=4;overflow=hidden;points=[[0,0.5],[1,0.5]];portConstraint=eastwest;rotatable=0;whiteSpace=wrap;html=1;" parent="_Jkfn7EzWGRx7QiyIQfU-5" vertex="1">
          <mxGeometry y="30" width="160" height="60" as="geometry" />
        </mxCell>
        <mxCell id="_Jkfn7EzWGRx7QiyIQfU-7" value="" style="endArrow=classic;html=1;rounded=0;entryX=0.853;entryY=1.033;entryDx=0;entryDy=0;entryPerimeter=0;exitX=0.188;exitY=0;exitDx=0;exitDy=0;exitPerimeter=0;fillColor=#CCFFCC;strokeColor=#CCFFCC;" parent="1" source="_Jkfn7EzWGRx7QiyIQfU-5" target="E_AX1NJWSpd25wLAtNJO-9" edge="1">
          <mxGeometry width="50" height="50" relative="1" as="geometry">
            <mxPoint x="530" y="696" as="sourcePoint" />
            <mxPoint x="466" y="450" as="targetPoint" />
          </mxGeometry>
        </mxCell>
        <mxCell id="_Jkfn7EzWGRx7QiyIQfU-8" value="" style="endArrow=classic;html=1;rounded=0;entryX=0.082;entryY=1.029;entryDx=0;entryDy=0;entryPerimeter=0;fillColor=#CCFFCC;strokeColor=#CCFFCC;" parent="1" target="E_AX1NJWSpd25wLAtNJO-13" edge="1">
          <mxGeometry width="50" height="50" relative="1" as="geometry">
            <mxPoint x="940" y="690" as="sourcePoint" />
            <mxPoint x="860" y="473" as="targetPoint" />
          </mxGeometry>
        </mxCell>
        <mxCell id="_Jkfn7EzWGRx7QiyIQfU-9" value="RandomDrop System" style="swimlane;fontStyle=0;childLayout=stackLayout;horizontal=1;startSize=30;horizontalStack=0;resizeParent=1;resizeParentMax=0;resizeLast=0;collapsible=1;marginBottom=0;whiteSpace=wrap;html=1;fillColor=#CCFFCC;" parent="1" vertex="1">
          <mxGeometry x="1000" y="700" width="160" height="90" as="geometry" />
        </mxCell>
        <mxCell id="_Jkfn7EzWGRx7QiyIQfU-10" value="&lt;div&gt;void step()&lt;/div&gt;&lt;div&gt;&lt;br&gt;&lt;/div&gt;" style="text;strokeColor=none;fillColor=none;align=left;verticalAlign=middle;spacingLeft=4;spacingRight=4;overflow=hidden;points=[[0,0.5],[1,0.5]];portConstraint=eastwest;rotatable=0;whiteSpace=wrap;html=1;" parent="_Jkfn7EzWGRx7QiyIQfU-9" vertex="1">
          <mxGeometry y="30" width="160" height="60" as="geometry" />
        </mxCell>
        <mxCell id="_Jkfn7EzWGRx7QiyIQfU-11" value="" style="endArrow=classic;html=1;rounded=0;entryX=1.027;entryY=1;entryDx=0;entryDy=0;entryPerimeter=0;exitX=0.25;exitY=0;exitDx=0;exitDy=0;fillColor=#CCFFCC;strokeColor=#CCFFCC;" parent="1" source="_Jkfn7EzWGRx7QiyIQfU-9" target="E_AX1NJWSpd25wLAtNJO-9" edge="1">
          <mxGeometry width="50" height="50" relative="1" as="geometry">
            <mxPoint x="860" y="700" as="sourcePoint" />
            <mxPoint x="518" y="473" as="targetPoint" />
          </mxGeometry>
        </mxCell>
        <mxCell id="_Jkfn7EzWGRx7QiyIQfU-14" value="PowerUp" style="swimlane;fontStyle=0;childLayout=stackLayout;horizontal=1;startSize=30;horizontalStack=0;resizeParent=1;resizeParentMax=0;resizeLast=0;collapsible=1;marginBottom=0;whiteSpace=wrap;html=1;fillColor=#CCFFCC;" parent="1" vertex="1">
          <mxGeometry x="1690" y="70" width="150" height="60" as="geometry" />
        </mxCell>
        <mxCell id="_Jkfn7EzWGRx7QiyIQfU-15" value="StatModifier statModifier" style="text;html=1;align=center;verticalAlign=middle;resizable=0;points=[];autosize=1;strokeColor=none;fillColor=none;" parent="_Jkfn7EzWGRx7QiyIQfU-14" vertex="1">
          <mxGeometry y="30" width="150" height="30" as="geometry" />
        </mxCell>
        <mxCell id="_Jkfn7EzWGRx7QiyIQfU-16" value="StatModifier&amp;nbsp;Component" style="swimlane;fontStyle=0;childLayout=stackLayout;horizontal=1;startSize=30;horizontalStack=0;resizeParent=1;resizeParentMax=0;resizeLast=0;collapsible=1;marginBottom=0;whiteSpace=wrap;html=1;fillColor=#CCFFCC;" parent="1" vertex="1">
          <mxGeometry x="1770" y="295" width="200" height="140" as="geometry" />
        </mxCell>
        <mxCell id="_Jkfn7EzWGRx7QiyIQfU-17" value="&lt;div style=&quot;text-align: justify;&quot;&gt;&lt;br&gt;&lt;/div&gt;&lt;blockquote data-darkreader-inline-border-left=&quot;&quot; data-darkreader-inline-border-bottom=&quot;&quot; data-darkreader-inline-border-right=&quot;&quot; data-darkreader-inline-border-top=&quot;&quot; style=&quot;margin: 0px 0px 0px 40px; border: none; padding: 0px; --darkreader-inline-border-top: initial; --darkreader-inline-border-right: initial; --darkreader-inline-border-bottom: initial; --darkreader-inline-border-left: initial;&quot;&gt;&lt;div style=&quot;text-align: justify;&quot;&gt;&lt;span data-darkreader-inline-color=&quot;&quot; data-darkreader-inline-bgcolor=&quot;&quot; style=&quot;background-color: initial; color: rgb(0, 0, 0); --darkreader-inline-bgcolor: initial; --darkreader-inline-color: #e8e6e3;&quot;&gt;bool hasTime&lt;/span&gt;&lt;/div&gt;&lt;div style=&quot;text-align: justify;&quot;&gt;&lt;span data-darkreader-inline-color=&quot;&quot; data-darkreader-inline-bgcolor=&quot;&quot; style=&quot;background-color: initial; color: rgb(0, 0, 0); --darkreader-inline-bgcolor: initial; --darkreader-inline-color: #e8e6e3;&quot;&gt;float timer_ms&lt;/span&gt;&lt;/div&gt;&lt;div style=&quot;text-align: justify;&quot;&gt;&lt;span data-darkreader-inline-color=&quot;&quot; data-darkreader-inline-bgcolor=&quot;&quot; style=&quot;background-color: initial; color: rgb(0, 0, 0); --darkreader-inline-bgcolor: initial; --darkreader-inline-color: #e8e6e3;&quot;&gt;int extra_jumps&amp;nbsp;&lt;/span&gt;&lt;/div&gt;&lt;div style=&quot;text-align: justify;&quot;&gt;&lt;span data-darkreader-inline-color=&quot;&quot; data-darkreader-inline-bgcolor=&quot;&quot; style=&quot;background-color: initial; color: rgb(0, 0, 0); --darkreader-inline-bgcolor: initial; --darkreader-inline-color: #e8e6e3;&quot;&gt;float jump_force_modifier&lt;/span&gt;&lt;/div&gt;&lt;div style=&quot;text-align: justify;&quot;&gt;&lt;span data-darkreader-inline-color=&quot;&quot; data-darkreader-inline-bgcolor=&quot;&quot; style=&quot;background-color: initial; color: rgb(0, 0, 0); --darkreader-inline-bgcolor: initial; --darkreader-inline-color: #e8e6e3;&quot;&gt;float running_force_modifier&lt;/span&gt;&lt;/div&gt;&lt;div style=&quot;text-align: justify;&quot;&gt;&lt;span data-darkreader-inline-color=&quot;&quot; data-darkreader-inline-bgcolor=&quot;&quot; style=&quot;background-color: initial; color: rgb(0, 0, 0); --darkreader-inline-bgcolor: initial; --darkreader-inline-color: #e8e6e3;&quot;&gt;float max_speed_modifier&lt;/span&gt;&lt;/div&gt;&lt;/blockquote&gt;" style="text;html=1;align=left;verticalAlign=middle;resizable=0;points=[];autosize=1;strokeColor=none;fillColor=none;" parent="_Jkfn7EzWGRx7QiyIQfU-16" vertex="1">
          <mxGeometry y="30" width="200" height="110" as="geometry" />
        </mxCell>
        <mxCell id="_Jkfn7EzWGRx7QiyIQfU-20" value="" style="endArrow=classic;html=1;rounded=0;entryX=0.513;entryY=1;entryDx=0;entryDy=0;entryPerimeter=0;fillColor=#CCFFCC;strokeColor=#CCFFCC;exitX=0.5;exitY=0;exitDx=0;exitDy=0;" parent="1" source="_Jkfn7EzWGRx7QiyIQfU-16" target="_Jkfn7EzWGRx7QiyIQfU-15" edge="1">
          <mxGeometry width="50" height="50" relative="1" as="geometry">
            <mxPoint x="1430" y="340" as="sourcePoint" />
            <mxPoint x="1804" y="195" as="targetPoint" />
          </mxGeometry>
        </mxCell>
        <mxCell id="_Jkfn7EzWGRx7QiyIQfU-21" value="" style="endArrow=classic;html=1;rounded=0;entryX=0.03;entryY=1.009;entryDx=0;entryDy=0;entryPerimeter=0;fillColor=#CCFFCC;strokeColor=#CCFFCC;exitX=0.5;exitY=0;exitDx=0;exitDy=0;" parent="1" source="_Jkfn7EzWGRx7QiyIQfU-9" target="_Jkfn7EzWGRx7QiyIQfU-17" edge="1">
          <mxGeometry width="50" height="50" relative="1" as="geometry">
            <mxPoint x="1170" y="675" as="sourcePoint" />
            <mxPoint x="1544" y="530" as="targetPoint" />
          </mxGeometry>
        </mxCell>
        <mxCell id="_Jkfn7EzWGRx7QiyIQfU-22" value="PlayerStatModifier Component" style="swimlane;fontStyle=0;childLayout=stackLayout;horizontal=1;startSize=30;horizontalStack=0;resizeParent=1;resizeParentMax=0;resizeLast=0;collapsible=1;marginBottom=0;whiteSpace=wrap;html=1;fillColor=#CCFFCC;" parent="1" vertex="1">
          <mxGeometry x="1700" y="505" width="180" height="90" as="geometry" />
        </mxCell>
        <mxCell id="_Jkfn7EzWGRx7QiyIQfU-23" value="&lt;div style=&quot;text-align: justify;&quot;&gt;&lt;br&gt;&lt;/div&gt;&lt;blockquote data-darkreader-inline-border-left=&quot;&quot; data-darkreader-inline-border-bottom=&quot;&quot; data-darkreader-inline-border-right=&quot;&quot; data-darkreader-inline-border-top=&quot;&quot; style=&quot;margin: 0px 0px 0px 40px; border: none; padding: 0px; --darkreader-inline-border-top: initial; --darkreader-inline-border-right: initial; --darkreader-inline-border-bottom: initial; --darkreader-inline-border-left: initial;&quot;&gt;&lt;div style=&quot;text-align: justify;&quot;&gt;&lt;span data-darkreader-inline-color=&quot;&quot; data-darkreader-inline-bgcolor=&quot;&quot; style=&quot;background-color: initial; color: rgb(0, 0, 0); --darkreader-inline-bgcolor: initial; --darkreader-inline-color: #e8e6e3;&quot;&gt;string id&lt;/span&gt;&lt;/div&gt;&lt;div style=&quot;text-align: justify;&quot;&gt;&lt;span data-darkreader-inline-color=&quot;&quot; data-darkreader-inline-bgcolor=&quot;&quot; style=&quot;background-color: initial; color: rgb(0, 0, 0); --darkreader-inline-bgcolor: initial; --darkreader-inline-color: #e8e6e3;&quot;&gt;StatModifier statModifier&lt;/span&gt;&lt;/div&gt;&lt;/blockquote&gt;" style="text;html=1;align=left;verticalAlign=middle;resizable=0;points=[];autosize=1;strokeColor=none;fillColor=none;" parent="_Jkfn7EzWGRx7QiyIQfU-22" vertex="1">
          <mxGeometry y="30" width="180" height="60" as="geometry" />
        </mxCell>
        <mxCell id="_Jkfn7EzWGRx7QiyIQfU-24" value="" style="endArrow=classic;html=1;rounded=0;entryX=0;entryY=0.967;entryDx=0;entryDy=0;entryPerimeter=0;fillColor=#CCFFCC;strokeColor=#CCFFCC;exitX=1.009;exitY=0.018;exitDx=0;exitDy=0;exitPerimeter=0;" parent="1" source="8jfZw3TqL5WwRgK06lYh-2" target="_Jkfn7EzWGRx7QiyIQfU-23" edge="1">
          <mxGeometry width="50" height="50" relative="1" as="geometry">
            <mxPoint x="1090" y="710" as="sourcePoint" />
            <mxPoint x="1676" y="461" as="targetPoint" />
          </mxGeometry>
        </mxCell>
        <mxCell id="_Jkfn7EzWGRx7QiyIQfU-25" value="" style="endArrow=classic;html=1;rounded=0;entryX=-0.012;entryY=0.333;entryDx=0;entryDy=0;entryPerimeter=0;fillColor=#CCFFCC;strokeColor=#CCFFCC;exitX=0.75;exitY=0;exitDx=0;exitDy=0;" parent="1" source="E_AX1NJWSpd25wLAtNJO-14" target="_Jkfn7EzWGRx7QiyIQfU-23" edge="1">
          <mxGeometry width="50" height="50" relative="1" as="geometry">
            <mxPoint x="1100" y="720" as="sourcePoint" />
            <mxPoint x="1686" y="471" as="targetPoint" />
          </mxGeometry>
        </mxCell>
        <mxCell id="_Jkfn7EzWGRx7QiyIQfU-26" value="" style="endArrow=classic;html=1;rounded=0;entryX=0.427;entryY=0.933;entryDx=0;entryDy=0;entryPerimeter=0;fillColor=#CCFFCC;strokeColor=#CCFFCC;exitX=0.381;exitY=-0.044;exitDx=0;exitDy=0;exitPerimeter=0;" parent="1" source="_Jkfn7EzWGRx7QiyIQfU-22" target="_Jkfn7EzWGRx7QiyIQfU-15" edge="1">
          <mxGeometry width="50" height="50" relative="1" as="geometry">
            <mxPoint x="1110" y="730" as="sourcePoint" />
            <mxPoint x="1696" y="481" as="targetPoint" />
          </mxGeometry>
        </mxCell>
        <mxCell id="_Jkfn7EzWGRx7QiyIQfU-27" value="GameState System" style="swimlane;fontStyle=0;childLayout=stackLayout;horizontal=1;startSize=30;horizontalStack=0;resizeParent=1;resizeParentMax=0;resizeLast=0;collapsible=1;marginBottom=0;whiteSpace=wrap;html=1;fillColor=#CCFFCC;" parent="1" vertex="1">
          <mxGeometry x="1450" y="710" width="190" height="90" as="geometry" />
        </mxCell>
        <mxCell id="_Jkfn7EzWGRx7QiyIQfU-28" value="&lt;div&gt;int get_current_state()&lt;br&gt;&lt;/div&gt;&lt;div&gt;void change_game_state()&lt;br&gt;&lt;/div&gt;" style="text;strokeColor=none;fillColor=none;align=left;verticalAlign=middle;spacingLeft=4;spacingRight=4;overflow=hidden;points=[[0,0.5],[1,0.5]];portConstraint=eastwest;rotatable=0;whiteSpace=wrap;html=1;" parent="_Jkfn7EzWGRx7QiyIQfU-27" vertex="1">
          <mxGeometry y="30" width="190" height="60" as="geometry" />
        </mxCell>
        <mxCell id="_Jkfn7EzWGRx7QiyIQfU-49" style="edgeStyle=orthogonalEdgeStyle;rounded=0;orthogonalLoop=1;jettySize=auto;html=1;" parent="_Jkfn7EzWGRx7QiyIQfU-27" source="_Jkfn7EzWGRx7QiyIQfU-28" target="_Jkfn7EzWGRx7QiyIQfU-28" edge="1">
          <mxGeometry relative="1" as="geometry" />
        </mxCell>
        <mxCell id="_Jkfn7EzWGRx7QiyIQfU-29" value="GameState" style="swimlane;fontStyle=0;childLayout=stackLayout;horizontal=1;startSize=30;horizontalStack=0;resizeParent=1;resizeParentMax=0;resizeLast=0;collapsible=1;marginBottom=0;whiteSpace=wrap;html=1;fillColor=#CCFFCC;" parent="1" vertex="1">
          <mxGeometry x="1580" y="140" width="150" height="60" as="geometry" />
        </mxCell>
        <mxCell id="_Jkfn7EzWGRx7QiyIQfU-30" value="int index" style="text;html=1;align=center;verticalAlign=middle;resizable=0;points=[];autosize=1;strokeColor=none;fillColor=none;" parent="_Jkfn7EzWGRx7QiyIQfU-29" vertex="1">
          <mxGeometry y="30" width="150" height="30" as="geometry" />
        </mxCell>
        <mxCell id="_Jkfn7EzWGRx7QiyIQfU-31" value="GameState Component" style="swimlane;fontStyle=0;childLayout=stackLayout;horizontal=1;startSize=30;horizontalStack=0;resizeParent=1;resizeParentMax=0;resizeLast=0;collapsible=1;marginBottom=0;whiteSpace=wrap;html=1;fillColor=#CCFFCC;" parent="1" vertex="1">
          <mxGeometry x="1600" y="315" width="150" height="70" as="geometry" />
        </mxCell>
        <mxCell id="_Jkfn7EzWGRx7QiyIQfU-32" value="enum GameState" style="text;strokeColor=none;fillColor=none;align=left;verticalAlign=middle;spacingLeft=4;spacingRight=4;overflow=hidden;points=[[0,0.5],[1,0.5]];portConstraint=eastwest;rotatable=0;whiteSpace=wrap;html=1;" parent="_Jkfn7EzWGRx7QiyIQfU-31" vertex="1">
          <mxGeometry y="30" width="150" height="40" as="geometry" />
        </mxCell>
        <mxCell id="_Jkfn7EzWGRx7QiyIQfU-33" value="" style="endArrow=classic;html=1;rounded=0;entryX=0.493;entryY=1.067;entryDx=0;entryDy=0;entryPerimeter=0;fillColor=#CCFFCC;strokeColor=#CCFFCC;exitX=0.5;exitY=0;exitDx=0;exitDy=0;" parent="1" source="_Jkfn7EzWGRx7QiyIQfU-31" target="_Jkfn7EzWGRx7QiyIQfU-30" edge="1">
          <mxGeometry width="50" height="50" relative="1" as="geometry">
            <mxPoint x="1750" y="340" as="sourcePoint" />
            <mxPoint x="1647" y="175" as="targetPoint" />
          </mxGeometry>
        </mxCell>
        <mxCell id="_Jkfn7EzWGRx7QiyIQfU-34" value="" style="endArrow=classic;html=1;rounded=0;entryX=0.467;entryY=1;entryDx=0;entryDy=0;entryPerimeter=0;fillColor=#CCFFCC;strokeColor=#CCFFCC;exitX=0.5;exitY=0;exitDx=0;exitDy=0;" parent="1" source="_Jkfn7EzWGRx7QiyIQfU-27" target="_Jkfn7EzWGRx7QiyIQfU-32" edge="1">
          <mxGeometry width="50" height="50" relative="1" as="geometry">
            <mxPoint x="1706.5" y="575" as="sourcePoint" />
            <mxPoint x="1603.5" y="410" as="targetPoint" />
          </mxGeometry>
        </mxCell>
        <mxCell id="_Jkfn7EzWGRx7QiyIQfU-35" value="Main Menu System" style="swimlane;fontStyle=0;childLayout=stackLayout;horizontal=1;startSize=30;horizontalStack=0;resizeParent=1;resizeParentMax=0;resizeLast=0;collapsible=1;marginBottom=0;whiteSpace=wrap;html=1;fillColor=#CCFFCC;" parent="1" vertex="1">
          <mxGeometry x="1650" y="710" width="180" height="140" as="geometry" />
        </mxCell>
        <mxCell id="_Jkfn7EzWGRx7QiyIQfU-36" value="&lt;div&gt;void initialize_main_menu()&lt;br&gt;&lt;/div&gt;&lt;div&gt;void createMenuBackgrounde()&lt;br&gt;&lt;/div&gt;&lt;div&gt;void create_button()&lt;br&gt;&lt;/div&gt;&lt;div&gt;bool is_point_inside_button()&lt;br&gt;&lt;/div&gt;&lt;div&gt;void on_key()&lt;br&gt;&lt;/div&gt;&lt;div&gt;void onClick()&lt;/div&gt;" style="text;strokeColor=none;fillColor=none;align=left;verticalAlign=middle;spacingLeft=4;spacingRight=4;overflow=hidden;points=[[0,0.5],[1,0.5]];portConstraint=eastwest;rotatable=0;whiteSpace=wrap;html=1;" parent="_Jkfn7EzWGRx7QiyIQfU-35" vertex="1">
          <mxGeometry y="30" width="180" height="110" as="geometry" />
        </mxCell>
        <mxCell id="_Jkfn7EzWGRx7QiyIQfU-37" value="" style="endArrow=classic;html=1;rounded=0;fillColor=#CCFFCC;strokeColor=#CCFFCC;exitX=0.25;exitY=0;exitDx=0;exitDy=0;entryX=0.24;entryY=1.15;entryDx=0;entryDy=0;entryPerimeter=0;" parent="1" source="_Jkfn7EzWGRx7QiyIQfU-35" target="_Jkfn7EzWGRx7QiyIQfU-32" edge="1">
          <mxGeometry width="50" height="50" relative="1" as="geometry">
            <mxPoint x="1555" y="720" as="sourcePoint" />
            <mxPoint x="1930" y="580" as="targetPoint" />
          </mxGeometry>
        </mxCell>
        <mxCell id="_Jkfn7EzWGRx7QiyIQfU-38" value="" style="endArrow=classic;html=1;rounded=0;fillColor=#CCFFCC;strokeColor=#CCFFCC;entryX=1.047;entryY=0.778;entryDx=0;entryDy=0;entryPerimeter=0;" parent="1" target="E_AX1NJWSpd25wLAtNJO-9" edge="1">
          <mxGeometry width="50" height="50" relative="1" as="geometry">
            <mxPoint x="1650" y="710" as="sourcePoint" />
            <mxPoint x="1070" y="490" as="targetPoint" />
          </mxGeometry>
        </mxCell>
        <mxCell id="_Jkfn7EzWGRx7QiyIQfU-39" value="Animation System" style="swimlane;fontStyle=0;childLayout=stackLayout;horizontal=1;startSize=30;horizontalStack=0;resizeParent=1;resizeParentMax=0;resizeLast=0;collapsible=1;marginBottom=0;whiteSpace=wrap;html=1;fillColor=#CCFFCC;" parent="1" vertex="1">
          <mxGeometry x="1970" y="710" width="160" height="110" as="geometry" />
        </mxCell>
        <mxCell id="_Jkfn7EzWGRx7QiyIQfU-40" value="&lt;div&gt;void step()&lt;br&gt;&lt;/div&gt;&lt;div&gt;void&amp;nbsp;manageSpriteFrame()&lt;/div&gt;" style="text;strokeColor=none;fillColor=none;align=left;verticalAlign=middle;spacingLeft=4;spacingRight=4;overflow=hidden;points=[[0,0.5],[1,0.5]];portConstraint=eastwest;rotatable=0;whiteSpace=wrap;html=1;" parent="_Jkfn7EzWGRx7QiyIQfU-39" vertex="1">
          <mxGeometry y="30" width="160" height="80" as="geometry" />
        </mxCell>
        <mxCell id="_Jkfn7EzWGRx7QiyIQfU-41" value="Animation Component" style="swimlane;fontStyle=0;childLayout=stackLayout;horizontal=1;startSize=30;horizontalStack=0;resizeParent=1;resizeParentMax=0;resizeLast=0;collapsible=1;marginBottom=0;whiteSpace=wrap;html=1;fillColor=#CCFFCC;" parent="1" vertex="1">
          <mxGeometry x="2010" y="300" width="150" height="160" as="geometry" />
        </mxCell>
        <mxCell id="_Jkfn7EzWGRx7QiyIQfU-42" value="&lt;div style=&quot;text-align: justify;&quot;&gt;&lt;div&gt;float sprite_height&lt;/div&gt;&lt;div&gt;float sprite_width&lt;/div&gt;&lt;div&gt;&lt;br&gt;&lt;/div&gt;&lt;div&gt;float animation_speed_ms&lt;/div&gt;&lt;div&gt;float ms_since_last_update&amp;nbsp;&lt;/div&gt;&lt;div&gt;&lt;br&gt;&lt;/div&gt;&lt;div&gt;int animation_type&lt;/div&gt;&lt;div&gt;int animation_frame&lt;/div&gt;&lt;/div&gt;" style="text;html=1;align=left;verticalAlign=middle;resizable=0;points=[];autosize=1;strokeColor=none;fillColor=none;" parent="_Jkfn7EzWGRx7QiyIQfU-41" vertex="1">
          <mxGeometry y="30" width="150" height="130" as="geometry" />
        </mxCell>
        <mxCell id="_Jkfn7EzWGRx7QiyIQfU-43" value="Animation" style="swimlane;fontStyle=0;childLayout=stackLayout;horizontal=1;startSize=30;horizontalStack=0;resizeParent=1;resizeParentMax=0;resizeLast=0;collapsible=1;marginBottom=0;whiteSpace=wrap;html=1;fillColor=#CCFFCC;" parent="1" vertex="1">
          <mxGeometry x="1940" y="100" width="150" height="60" as="geometry" />
        </mxCell>
        <mxCell id="_Jkfn7EzWGRx7QiyIQfU-44" value="int index" style="text;html=1;align=center;verticalAlign=middle;resizable=0;points=[];autosize=1;strokeColor=none;fillColor=none;" parent="_Jkfn7EzWGRx7QiyIQfU-43" vertex="1">
          <mxGeometry y="30" width="150" height="30" as="geometry" />
        </mxCell>
        <mxCell id="_Jkfn7EzWGRx7QiyIQfU-45" value="" style="endArrow=classic;html=1;rounded=0;entryX=0.467;entryY=1.031;entryDx=0;entryDy=0;entryPerimeter=0;fillColor=#CCFFCC;strokeColor=#CCFFCC;exitX=0.5;exitY=0;exitDx=0;exitDy=0;" parent="1" source="_Jkfn7EzWGRx7QiyIQfU-39" target="_Jkfn7EzWGRx7QiyIQfU-42" edge="1">
          <mxGeometry width="50" height="50" relative="1" as="geometry">
            <mxPoint x="1890" y="664" as="sourcePoint" />
            <mxPoint x="2178" y="530" as="targetPoint" />
          </mxGeometry>
        </mxCell>
        <mxCell id="_Jkfn7EzWGRx7QiyIQfU-46" value="" style="endArrow=classic;html=1;rounded=0;entryX=0.52;entryY=0.933;entryDx=0;entryDy=0;entryPerimeter=0;fillColor=#CCFFCC;strokeColor=#CCFFCC;exitX=1.009;exitY=0.018;exitDx=0;exitDy=0;exitPerimeter=0;" parent="1" target="_Jkfn7EzWGRx7QiyIQfU-44" edge="1">
          <mxGeometry width="50" height="50" relative="1" as="geometry">
            <mxPoint x="2080" y="300" as="sourcePoint" />
            <mxPoint x="2368" y="166" as="targetPoint" />
          </mxGeometry>
        </mxCell>
        <mxCell id="_Jkfn7EzWGRx7QiyIQfU-47" value="" style="endArrow=classic;html=1;rounded=0;fillColor=#CCFFCC;strokeColor=#CCFFCC;exitX=0.194;exitY=-0.009;exitDx=0;exitDy=0;exitPerimeter=0;entryX=1;entryY=0.5;entryDx=0;entryDy=0;" parent="1" source="_Jkfn7EzWGRx7QiyIQfU-39" target="E_AX1NJWSpd25wLAtNJO-9" edge="1">
          <mxGeometry width="50" height="50" relative="1" as="geometry">
            <mxPoint x="1432" y="752" as="sourcePoint" />
            <mxPoint x="870" y="470" as="targetPoint" />
          </mxGeometry>
        </mxCell>
        <mxCell id="_Jkfn7EzWGRx7QiyIQfU-48" value="" style="endArrow=classic;html=1;rounded=0;entryX=1.006;entryY=1;entryDx=0;entryDy=0;entryPerimeter=0;fillColor=#CCFFCC;strokeColor=#CCFFCC;" parent="1" target="E_AX1NJWSpd25wLAtNJO-13" edge="1">
          <mxGeometry width="50" height="50" relative="1" as="geometry">
            <mxPoint x="2020" y="710" as="sourcePoint" />
            <mxPoint x="1730" y="628" as="targetPoint" />
          </mxGeometry>
        </mxCell>
        <mxCell id="MU7IKzNcwtKqI-BDVp_O-1" value="Sound System" style="swimlane;fontStyle=0;childLayout=stackLayout;horizontal=1;startSize=30;horizontalStack=0;resizeParent=1;resizeParentMax=0;resizeLast=0;collapsible=1;marginBottom=0;whiteSpace=wrap;html=1;fillColor=#dae8fc;strokeColor=#6c8ebf;" vertex="1" parent="1">
          <mxGeometry x="2210" y="710" width="180" height="160" as="geometry" />
        </mxCell>
        <mxCell id="MU7IKzNcwtKqI-BDVp_O-2" value="&lt;div&gt;void step()&lt;/div&gt;&lt;div&gt;void init_sounds()&lt;/div&gt;&lt;div&gt;void play_shoot_sound()&lt;/div&gt;&lt;div&gt;void&lt;span style=&quot;background-color: initial;&quot;&gt;&amp;nbsp;play_reload_sound()&lt;/span&gt;&lt;/div&gt;&lt;div&gt;void play_pickup_sound()&lt;/div&gt;&lt;div&gt;void play_hit_sound()&lt;/div&gt;&lt;div&gt;void play_walk_sound()&lt;/div&gt;&lt;div&gt;&lt;br&gt;&lt;/div&gt;" style="text;strokeColor=none;fillColor=none;align=left;verticalAlign=middle;spacingLeft=4;spacingRight=4;overflow=hidden;points=[[0,0.5],[1,0.5]];portConstraint=eastwest;rotatable=0;whiteSpace=wrap;html=1;" vertex="1" parent="MU7IKzNcwtKqI-BDVp_O-1">
          <mxGeometry y="30" width="180" height="130" as="geometry" />
        </mxCell>
        <mxCell id="MU7IKzNcwtKqI-BDVp_O-29" style="rounded=0;orthogonalLoop=1;jettySize=auto;html=1;entryX=0.5;entryY=1;entryDx=0;entryDy=0;strokeColor=#002AFF;" edge="1" parent="1" source="MU7IKzNcwtKqI-BDVp_O-3" target="MU7IKzNcwtKqI-BDVp_O-9">
          <mxGeometry relative="1" as="geometry" />
        </mxCell>
        <mxCell id="MU7IKzNcwtKqI-BDVp_O-30" style="rounded=0;orthogonalLoop=1;jettySize=auto;html=1;exitX=0.25;exitY=0;exitDx=0;exitDy=0;entryX=0.5;entryY=1;entryDx=0;entryDy=0;strokeColor=#002AFF;" edge="1" parent="1" source="MU7IKzNcwtKqI-BDVp_O-3" target="MU7IKzNcwtKqI-BDVp_O-7">
          <mxGeometry relative="1" as="geometry" />
        </mxCell>
        <mxCell id="MU7IKzNcwtKqI-BDVp_O-3" value="Gun System" style="swimlane;fontStyle=0;childLayout=stackLayout;horizontal=1;startSize=30;horizontalStack=0;resizeParent=1;resizeParentMax=0;resizeLast=0;collapsible=1;marginBottom=0;whiteSpace=wrap;html=1;fillColor=#dae8fc;strokeColor=#6c8ebf;" vertex="1" parent="1">
          <mxGeometry x="2410" y="710" width="160" height="140" as="geometry" />
        </mxCell>
        <mxCell id="MU7IKzNcwtKqI-BDVp_O-4" value="&lt;div&gt;void step()&lt;br&gt;&lt;/div&gt;&lt;div&gt;&lt;div&gt;bool collidesRect()&lt;/div&gt;&lt;div&gt;void animateRecoil()&lt;/div&gt;&lt;div&gt;void checkHitscanCollision()&lt;/div&gt;&lt;/div&gt;" style="text;strokeColor=none;fillColor=none;align=left;verticalAlign=middle;spacingLeft=4;spacingRight=4;overflow=hidden;points=[[0,0.5],[1,0.5]];portConstraint=eastwest;rotatable=0;whiteSpace=wrap;html=1;" vertex="1" parent="MU7IKzNcwtKqI-BDVp_O-3">
          <mxGeometry y="30" width="160" height="110" as="geometry" />
        </mxCell>
        <mxCell id="MU7IKzNcwtKqI-BDVp_O-5" value="OutOfBoundsArrowSystem" style="swimlane;fontStyle=0;childLayout=stackLayout;horizontal=1;startSize=30;horizontalStack=0;resizeParent=1;resizeParentMax=0;resizeLast=0;collapsible=1;marginBottom=0;whiteSpace=wrap;html=1;fillColor=#dae8fc;strokeColor=#6c8ebf;" vertex="1" parent="1">
          <mxGeometry x="2600" y="710" width="160" height="80" as="geometry" />
        </mxCell>
        <mxCell id="MU7IKzNcwtKqI-BDVp_O-6" value="&lt;div&gt;void step()&lt;/div&gt;" style="text;strokeColor=none;fillColor=none;align=left;verticalAlign=middle;spacingLeft=4;spacingRight=4;overflow=hidden;points=[[0,0.5],[1,0.5]];portConstraint=eastwest;rotatable=0;whiteSpace=wrap;html=1;" vertex="1" parent="MU7IKzNcwtKqI-BDVp_O-5">
          <mxGeometry y="30" width="160" height="50" as="geometry" />
        </mxCell>
        <mxCell id="MU7IKzNcwtKqI-BDVp_O-7" value="Gun Component" style="swimlane;fontStyle=0;childLayout=stackLayout;horizontal=1;startSize=30;horizontalStack=0;resizeParent=1;resizeParentMax=0;resizeLast=0;collapsible=1;marginBottom=0;whiteSpace=wrap;html=1;fillColor=#dae8fc;strokeColor=#6c8ebf;" vertex="1" parent="1">
          <mxGeometry x="2210" y="160" width="190" height="360" as="geometry" />
        </mxCell>
        <mxCell id="MU7IKzNcwtKqI-BDVp_O-8" value="&lt;div style=&quot;text-align: justify;&quot;&gt;&lt;div&gt;string name&lt;/div&gt;&lt;div&gt;Entity gunOwner&lt;/div&gt;&lt;div&gt;StatModifier statModifier&lt;/div&gt;&lt;div&gt;float fireRateMs&lt;/div&gt;&lt;div&gt;float fireRateTimerMs&lt;/div&gt;&lt;div&gt;float bulletVelocity&lt;/div&gt;&lt;div&gt;float knockback&lt;/div&gt;&lt;div&gt;bool hasNormalDropOff&lt;/div&gt;&lt;div&gt;float distanceStrengthModifier&lt;/div&gt;&lt;div&gt;float recoil&lt;/div&gt;&lt;div&gt;float recoilAnimationModifier&lt;/div&gt;&lt;div&gt;bool isHitScan&lt;/div&gt;&lt;div&gt;float hitScanRange&lt;/div&gt;&lt;div&gt;bool currentlyReloading&lt;/div&gt;&lt;div&gt;float reloadMs&lt;/div&gt;&lt;div&gt;float reloadTimerMs&lt;/div&gt;&lt;div&gt;bool hasInfiniteAmmo&lt;/div&gt;&lt;div&gt;int magazineSize&lt;/div&gt;&lt;div&gt;int magazineAmmo&lt;/div&gt;&lt;div&gt;int reserveAmmo&lt;/div&gt;&lt;div&gt;vec2 gunSize&lt;/div&gt;&lt;div&gt;&lt;br&gt;&lt;/div&gt;&lt;/div&gt;" style="text;html=1;align=left;verticalAlign=middle;resizable=0;points=[];autosize=1;strokeColor=none;fillColor=none;" vertex="1" parent="MU7IKzNcwtKqI-BDVp_O-7">
          <mxGeometry y="30" width="190" height="330" as="geometry" />
        </mxCell>
        <mxCell id="MU7IKzNcwtKqI-BDVp_O-9" value="MuzzleFlash Component" style="swimlane;fontStyle=0;childLayout=stackLayout;horizontal=1;startSize=30;horizontalStack=0;resizeParent=1;resizeParentMax=0;resizeLast=0;collapsible=1;marginBottom=0;whiteSpace=wrap;html=1;fillColor=#dae8fc;strokeColor=#6c8ebf;" vertex="1" parent="1">
          <mxGeometry x="2450" y="310" width="150" height="70" as="geometry" />
        </mxCell>
        <mxCell id="MU7IKzNcwtKqI-BDVp_O-10" value="&lt;div style=&quot;text-align: justify;&quot;&gt;&lt;div&gt;float timerMs&lt;/div&gt;&lt;div&gt;bool facing_right&lt;/div&gt;&lt;/div&gt;" style="text;html=1;align=left;verticalAlign=middle;resizable=0;points=[];autosize=1;strokeColor=none;fillColor=none;" vertex="1" parent="MU7IKzNcwtKqI-BDVp_O-9">
          <mxGeometry y="30" width="150" height="40" as="geometry" />
        </mxCell>
        <mxCell id="MU7IKzNcwtKqI-BDVp_O-35" style="rounded=0;orthogonalLoop=1;jettySize=auto;html=1;entryX=0.5;entryY=1;entryDx=0;entryDy=0;strokeColor=#002AFF;" edge="1" parent="1" source="MU7IKzNcwtKqI-BDVp_O-12" target="MU7IKzNcwtKqI-BDVp_O-26">
          <mxGeometry relative="1" as="geometry" />
        </mxCell>
        <mxCell id="MU7IKzNcwtKqI-BDVp_O-12" value="GunMysteryBox Component" style="swimlane;fontStyle=0;childLayout=stackLayout;horizontal=1;startSize=30;horizontalStack=0;resizeParent=1;resizeParentMax=0;resizeLast=0;collapsible=1;marginBottom=0;whiteSpace=wrap;html=1;fillColor=#dae8fc;strokeColor=#6c8ebf;" vertex="1" parent="1">
          <mxGeometry x="2630" y="310" width="150" height="60" as="geometry" />
        </mxCell>
        <mxCell id="MU7IKzNcwtKqI-BDVp_O-13" value="&lt;div style=&quot;text-align: justify;&quot;&gt;Gun randomGun&lt;br&gt;&lt;/div&gt;" style="text;html=1;align=left;verticalAlign=middle;resizable=0;points=[];autosize=1;strokeColor=none;fillColor=none;" vertex="1" parent="MU7IKzNcwtKqI-BDVp_O-12">
          <mxGeometry y="30" width="150" height="30" as="geometry" />
        </mxCell>
        <mxCell id="MU7IKzNcwtKqI-BDVp_O-14" value="NonInteractable Component" style="swimlane;fontStyle=0;childLayout=stackLayout;horizontal=1;startSize=30;horizontalStack=0;resizeParent=1;resizeParentMax=0;resizeLast=0;collapsible=1;marginBottom=0;whiteSpace=wrap;html=1;fillColor=#dae8fc;strokeColor=#6c8ebf;" vertex="1" parent="1">
          <mxGeometry x="3060" y="315" width="150" height="160" as="geometry" />
        </mxCell>
        <mxCell id="MU7IKzNcwtKqI-BDVp_O-15" value="&lt;div style=&quot;text-align: justify;&quot;&gt;&lt;div&gt;float sprite_height&lt;/div&gt;&lt;div&gt;float sprite_width&lt;/div&gt;&lt;div&gt;&lt;br&gt;&lt;/div&gt;&lt;div&gt;float animation_speed_ms&lt;/div&gt;&lt;div&gt;float ms_since_last_update&amp;nbsp;&lt;/div&gt;&lt;div&gt;&lt;br&gt;&lt;/div&gt;&lt;div&gt;int animation_type&lt;/div&gt;&lt;div&gt;int animation_frame&lt;/div&gt;&lt;/div&gt;" style="text;html=1;align=left;verticalAlign=middle;resizable=0;points=[];autosize=1;strokeColor=none;fillColor=none;" vertex="1" parent="MU7IKzNcwtKqI-BDVp_O-14">
          <mxGeometry y="30" width="150" height="130" as="geometry" />
        </mxCell>
        <mxCell id="MU7IKzNcwtKqI-BDVp_O-36" style="rounded=0;orthogonalLoop=1;jettySize=auto;html=1;entryX=0.5;entryY=1;entryDx=0;entryDy=0;strokeColor=#002AFF;" edge="1" parent="1" source="MU7IKzNcwtKqI-BDVp_O-16" target="MU7IKzNcwtKqI-BDVp_O-23">
          <mxGeometry relative="1" as="geometry" />
        </mxCell>
        <mxCell id="MU7IKzNcwtKqI-BDVp_O-16" value="PopupIndicator Component" style="swimlane;fontStyle=0;childLayout=stackLayout;horizontal=1;startSize=30;horizontalStack=0;resizeParent=1;resizeParentMax=0;resizeLast=0;collapsible=1;marginBottom=0;whiteSpace=wrap;html=1;fillColor=#dae8fc;strokeColor=#6c8ebf;" vertex="1" parent="1">
          <mxGeometry x="2820" y="310" width="200" height="90" as="geometry" />
        </mxCell>
        <mxCell id="MU7IKzNcwtKqI-BDVp_O-17" value="&lt;div style=&quot;text-align: justify;&quot;&gt;&lt;div&gt;string type&lt;span style=&quot;&quot;&gt;&lt;/span&gt;&lt;/div&gt;&lt;div&gt;&lt;span style=&quot;white-space-collapse: preserve;&quot;&gt;E&lt;/span&gt;ntity player&lt;/div&gt;&lt;div&gt;&lt;span style=&quot;&quot;&gt;float timer&lt;/span&gt;&lt;/div&gt;&lt;/div&gt;" style="text;html=1;align=left;verticalAlign=middle;resizable=0;points=[];autosize=1;strokeColor=none;fillColor=none;" vertex="1" parent="MU7IKzNcwtKqI-BDVp_O-16">
          <mxGeometry y="30" width="200" height="60" as="geometry" />
        </mxCell>
        <mxCell id="MU7IKzNcwtKqI-BDVp_O-19" value="Gun" style="swimlane;fontStyle=0;childLayout=stackLayout;horizontal=1;startSize=30;horizontalStack=0;resizeParent=1;resizeParentMax=0;resizeLast=0;collapsible=1;marginBottom=0;whiteSpace=wrap;html=1;fillColor=#dae8fc;strokeColor=#6c8ebf;" vertex="1" parent="1">
          <mxGeometry x="2230" y="30" width="150" height="60" as="geometry" />
        </mxCell>
        <mxCell id="MU7IKzNcwtKqI-BDVp_O-20" value="&lt;div style=&quot;text-align: justify;&quot;&gt;int index&lt;br&gt;&lt;/div&gt;" style="text;html=1;align=left;verticalAlign=middle;resizable=0;points=[];autosize=1;strokeColor=none;fillColor=none;" vertex="1" parent="MU7IKzNcwtKqI-BDVp_O-19">
          <mxGeometry y="30" width="150" height="30" as="geometry" />
        </mxCell>
        <mxCell id="MU7IKzNcwtKqI-BDVp_O-21" value="MuzzleFlash" style="swimlane;fontStyle=0;childLayout=stackLayout;horizontal=1;startSize=30;horizontalStack=0;resizeParent=1;resizeParentMax=0;resizeLast=0;collapsible=1;marginBottom=0;whiteSpace=wrap;html=1;fillColor=#dae8fc;strokeColor=#6c8ebf;" vertex="1" parent="1">
          <mxGeometry x="2420" y="30" width="150" height="60" as="geometry" />
        </mxCell>
        <mxCell id="MU7IKzNcwtKqI-BDVp_O-22" value="&lt;div style=&quot;text-align: justify;&quot;&gt;int index&lt;br&gt;&lt;/div&gt;" style="text;html=1;align=left;verticalAlign=middle;resizable=0;points=[];autosize=1;strokeColor=none;fillColor=none;" vertex="1" parent="MU7IKzNcwtKqI-BDVp_O-21">
          <mxGeometry y="30" width="150" height="30" as="geometry" />
        </mxCell>
        <mxCell id="MU7IKzNcwtKqI-BDVp_O-23" value="Popup Indicator" style="swimlane;fontStyle=0;childLayout=stackLayout;horizontal=1;startSize=30;horizontalStack=0;resizeParent=1;resizeParentMax=0;resizeLast=0;collapsible=1;marginBottom=0;whiteSpace=wrap;html=1;fillColor=#dae8fc;strokeColor=#6c8ebf;" vertex="1" parent="1">
          <mxGeometry x="2800" y="30" width="150" height="60" as="geometry" />
        </mxCell>
        <mxCell id="MU7IKzNcwtKqI-BDVp_O-24" value="&lt;div style=&quot;text-align: justify;&quot;&gt;int index&lt;br&gt;&lt;/div&gt;" style="text;html=1;align=left;verticalAlign=middle;resizable=0;points=[];autosize=1;strokeColor=none;fillColor=none;" vertex="1" parent="MU7IKzNcwtKqI-BDVp_O-23">
          <mxGeometry y="30" width="150" height="30" as="geometry" />
        </mxCell>
        <mxCell id="MU7IKzNcwtKqI-BDVp_O-26" value="GunMysteryBox" style="swimlane;fontStyle=0;childLayout=stackLayout;horizontal=1;startSize=30;horizontalStack=0;resizeParent=1;resizeParentMax=0;resizeLast=0;collapsible=1;marginBottom=0;whiteSpace=wrap;html=1;fillColor=#dae8fc;strokeColor=#6c8ebf;" vertex="1" parent="1">
          <mxGeometry x="2620" y="30" width="150" height="60" as="geometry" />
        </mxCell>
        <mxCell id="MU7IKzNcwtKqI-BDVp_O-27" value="&lt;div style=&quot;text-align: justify;&quot;&gt;int index&lt;br&gt;&lt;/div&gt;" style="text;html=1;align=left;verticalAlign=middle;resizable=0;points=[];autosize=1;strokeColor=none;fillColor=none;" vertex="1" parent="MU7IKzNcwtKqI-BDVp_O-26">
          <mxGeometry y="30" width="150" height="30" as="geometry" />
        </mxCell>
        <mxCell id="MU7IKzNcwtKqI-BDVp_O-32" style="rounded=0;orthogonalLoop=1;jettySize=auto;html=1;entryX=0.494;entryY=1.132;entryDx=0;entryDy=0;entryPerimeter=0;strokeColor=#002AFF;" edge="1" parent="1" source="MU7IKzNcwtKqI-BDVp_O-7" target="MU7IKzNcwtKqI-BDVp_O-20">
          <mxGeometry relative="1" as="geometry" />
        </mxCell>
        <mxCell id="MU7IKzNcwtKqI-BDVp_O-33" style="rounded=0;orthogonalLoop=1;jettySize=auto;html=1;entryX=0.981;entryY=0.958;entryDx=0;entryDy=0;entryPerimeter=0;strokeColor=#002AFF;" edge="1" parent="1" source="MU7IKzNcwtKqI-BDVp_O-12" target="MU7IKzNcwtKqI-BDVp_O-20">
          <mxGeometry relative="1" as="geometry" />
        </mxCell>
        <mxCell id="MU7IKzNcwtKqI-BDVp_O-34" style="rounded=0;orthogonalLoop=1;jettySize=auto;html=1;entryX=0.445;entryY=1.045;entryDx=0;entryDy=0;entryPerimeter=0;strokeColor=#002AFF;" edge="1" parent="1" source="MU7IKzNcwtKqI-BDVp_O-9" target="MU7IKzNcwtKqI-BDVp_O-22">
          <mxGeometry relative="1" as="geometry" />
        </mxCell>
        <mxCell id="MU7IKzNcwtKqI-BDVp_O-37" style="rounded=0;orthogonalLoop=1;jettySize=auto;html=1;exitX=1;exitY=0;exitDx=0;exitDy=0;entryX=0.483;entryY=1.117;entryDx=0;entryDy=0;entryPerimeter=0;strokeColor=#002AFF;" edge="1" parent="1" source="8jfZw3TqL5WwRgK06lYh-1" target="MU7IKzNcwtKqI-BDVp_O-17">
          <mxGeometry relative="1" as="geometry" />
        </mxCell>
        <mxCell id="MU7IKzNcwtKqI-BDVp_O-39" style="rounded=0;orthogonalLoop=1;jettySize=auto;html=1;exitX=1;exitY=0;exitDx=0;exitDy=0;entryX=0.522;entryY=1.05;entryDx=0;entryDy=0;entryPerimeter=0;strokeColor=#002AFF;" edge="1" parent="1" source="8jfZw3TqL5WwRgK06lYh-1" target="MU7IKzNcwtKqI-BDVp_O-15">
          <mxGeometry relative="1" as="geometry" />
        </mxCell>
        <mxCell id="MU7IKzNcwtKqI-BDVp_O-40" value="OutOfBoundsArrow Component" style="swimlane;fontStyle=0;childLayout=stackLayout;horizontal=1;startSize=30;horizontalStack=0;resizeParent=1;resizeParentMax=0;resizeLast=0;collapsible=1;marginBottom=0;whiteSpace=wrap;html=1;fillColor=#dae8fc;strokeColor=#6c8ebf;" vertex="1" parent="1">
          <mxGeometry x="2760" y="215" width="250" height="80" as="geometry" />
        </mxCell>
        <mxCell id="MU7IKzNcwtKqI-BDVp_O-41" value="&lt;div&gt;Entity entity_to_track&lt;/div&gt;&lt;div&gt;TEXTURE_ASSET_ID textureId&lt;/div&gt;" style="text;strokeColor=none;fillColor=none;align=left;verticalAlign=middle;spacingLeft=4;spacingRight=4;overflow=hidden;points=[[0,0.5],[1,0.5]];portConstraint=eastwest;rotatable=0;whiteSpace=wrap;html=1;" vertex="1" parent="MU7IKzNcwtKqI-BDVp_O-40">
          <mxGeometry y="30" width="250" height="50" as="geometry" />
        </mxCell>
        <mxCell id="MU7IKzNcwtKqI-BDVp_O-42" value="OutOfBoundsArrow" style="swimlane;fontStyle=0;childLayout=stackLayout;horizontal=1;startSize=30;horizontalStack=0;resizeParent=1;resizeParentMax=0;resizeLast=0;collapsible=1;marginBottom=0;whiteSpace=wrap;html=1;fillColor=#dae8fc;strokeColor=#6c8ebf;" vertex="1" parent="1">
          <mxGeometry x="2990" y="30" width="250" height="80" as="geometry" />
        </mxCell>
        <mxCell id="MU7IKzNcwtKqI-BDVp_O-43" value="int index" style="text;strokeColor=none;fillColor=none;align=left;verticalAlign=middle;spacingLeft=4;spacingRight=4;overflow=hidden;points=[[0,0.5],[1,0.5]];portConstraint=eastwest;rotatable=0;whiteSpace=wrap;html=1;" vertex="1" parent="MU7IKzNcwtKqI-BDVp_O-42">
          <mxGeometry y="30" width="250" height="50" as="geometry" />
        </mxCell>
        <mxCell id="MU7IKzNcwtKqI-BDVp_O-44" style="rounded=0;orthogonalLoop=1;jettySize=auto;html=1;entryX=0.487;entryY=1.025;entryDx=0;entryDy=0;entryPerimeter=0;strokeColor=#002AFF;" edge="1" parent="1" source="MU7IKzNcwtKqI-BDVp_O-41" target="MU7IKzNcwtKqI-BDVp_O-43">
          <mxGeometry relative="1" as="geometry" />
        </mxCell>
        <mxCell id="MU7IKzNcwtKqI-BDVp_O-45" style="rounded=0;orthogonalLoop=1;jettySize=auto;html=1;entryX=0.194;entryY=1.052;entryDx=0;entryDy=0;entryPerimeter=0;strokeColor=#002AFF;" edge="1" parent="1" source="MU7IKzNcwtKqI-BDVp_O-5" target="MU7IKzNcwtKqI-BDVp_O-41">
          <mxGeometry relative="1" as="geometry" />
        </mxCell>
      </root>
    </mxGraphModel>
  </diagram>
</mxfile>
